<svg width="17" height="20" viewBox="0 0 17 20" fill="none" xmlns="http://www.w3.org/2000/svg">
<path fill-rule="evenodd" clip-rule="evenodd" d="M15.4207 1.00002L15.7887 1.10882C16.5078 1.32133 17.0002 1.97309 17 2.71227V11.6317C16.9998 13.9555 16.0182 16.1746 14.2902 17.7576C11.027 20.7475 5.97216 20.7475 2.70895 17.7576C0.981313 16.1745 1.02138e-05 13.9554 0 11.6317V2.71227C-0.000164644 1.97309 0.492175 1.32133 1.21125 1.10882L1.5793 1.00002C6.09372 -0.333341 10.9063 -0.333341 15.4207 1.00002ZM7.29385 12.6091L13.2439 8.42477L13.243 8.4231C13.6251 8.15457 13.7138 7.63189 13.441 7.25566C13.1683 6.87944 12.6374 6.79213 12.2553 7.06067L6.89095 10.8333L4.85095 8.8248C4.51743 8.50765 3.98728 8.51218 3.6594 8.83499C3.33153 9.15781 3.32692 9.67977 3.64905 10.0081L6.19905 12.5188C6.24536 12.5568 6.29582 12.5896 6.3495 12.6167C6.38077 12.6404 6.41372 12.662 6.4481 12.6811C6.55794 12.7336 6.67796 12.7621 6.8 12.7648C6.89891 12.7628 6.99672 12.7438 7.089 12.7087C7.1181 12.6967 7.14648 12.683 7.174 12.6677C7.21551 12.6515 7.2556 12.6319 7.29385 12.6091Z" fill="#DE3C3C"/>
</svg>
