<svg width="21" height="20" viewBox="0 0 21 20" fill="none" xmlns="http://www.w3.org/2000/svg">
<path fill-rule="evenodd" clip-rule="evenodd" d="M2.20212 15.204C2.76029 15.204 3.21294 15.6462 3.21294 16.1914C3.21294 16.7367 2.76029 17.1789 2.20212 17.1789C1.64395 17.1789 1.1913 16.7367 1.1913 16.1914C1.1913 15.6462 1.64395 15.204 2.20212 15.204ZM5.62562 8.43577H0V18.2956H5.62562V8.43577ZM6.28741 8.92041V17.7732L8.21832 18.4845C9.04531 18.7802 9.98307 19.1044 10.8931 19.3465C11.8027 19.5891 12.6851 19.7509 13.6234 19.8577C14.5606 19.966 15.5528 20.0196 16.2695 19.9935C16.9867 19.9664 17.4284 19.8582 17.8151 19.6698C18.2004 19.4813 18.5313 19.2112 18.7801 18.915C19.0279 18.6188 19.1936 18.2956 19.2762 18.0264C19.3593 17.7573 19.3593 17.5413 19.386 17.3258C19.4142 17.1099 19.4691 16.8948 19.5245 16.733C19.5794 16.5716 19.6348 16.4638 19.7169 16.3025L19.9934 15.7366C20.076 15.5477 20.1309 15.3859 20.159 15.1708C20.1858 14.9553 20.1858 14.6853 20.1858 14.4436C20.1858 14.2011 20.1858 13.9851 20.2412 13.7435C20.2961 13.5009 20.4069 13.2313 20.4899 13.0154L20.6824 12.4766C20.7382 12.3152 20.7931 12.1538 20.7931 11.992C20.7931 11.8301 20.7382 11.6687 20.6824 11.5064C20.627 11.345 20.5721 11.1836 20.5721 11.0488C20.5721 10.914 20.627 10.8063 20.7101 10.6174C20.7931 10.4294 20.9025 10.1593 20.9588 9.86357C21.0137 9.56691 21.0137 9.24366 20.9588 8.92041C20.9025 8.59809 20.7931 8.27344 20.5998 7.97771C20.4069 7.68152 20.1309 7.41238 19.8282 7.22346C19.5245 7.03455 19.1936 6.9268 18.5313 6.87269C17.8695 6.81905 16.8774 6.81905 16.2428 6.792C15.6087 6.76541 15.3327 6.71177 15.1952 6.65766C15.0572 6.60355 15.0572 6.54991 15.167 6.33441C15.2778 6.11891 15.4979 5.74202 15.6636 5.33761C15.8288 4.93319 15.9401 4.50266 15.995 4.01709C16.0499 3.53244 16.0499 2.99369 15.995 2.50905C15.9401 2.02394 15.8288 1.59294 15.6087 1.21605C15.3876 0.839161 15.0572 0.515445 14.5879 0.299945C14.119 0.0849113 13.5126 -0.0233051 13.0442 0.00421545C12.5753 0.0308031 12.2439 0.192195 12.0238 0.515445C11.8027 0.839161 11.6929 1.3238 11.5826 1.94372C11.4714 2.56316 11.362 3.31694 10.9204 4.17941C10.4792 5.04094 9.70757 6.01069 9.04197 6.73836C8.37684 7.46602 7.81915 7.95066 7.37701 8.27484C6.9363 8.59809 6.61161 8.75902 6.28741 8.92041Z" fill="#DE3C3C"/>
</svg>
