<svg width="23" height="20" viewBox="0 0 23 20" fill="none" xmlns="http://www.w3.org/2000/svg">
<path fill-rule="evenodd" clip-rule="evenodd" d="M15.6594 4.24419C15.6594 6.58894 13.7976 8.48939 11.5 8.48939C9.20336 8.48939 7.34061 6.58894 7.34061 4.24419C7.34061 1.89985 9.20336 0 11.5 0C13.7976 0 15.6594 1.89985 15.6594 4.24419ZM4.49177 15.0062C4.33767 15.0064 4.17758 14.9625 4.01605 14.876L3.05888 14.3642L2.10121 14.876C1.70531 15.0879 1.29769 15.0297 1.06447 14.7466C0.953148 14.6116 0.834385 14.3698 0.899859 13.9842L1.08192 12.9031L0.308736 12.1365C0.0401613 11.8709 -0.0597129 11.5477 0.034901 11.25C0.129515 10.9521 0.396646 10.7498 0.767957 10.6951L1.83768 10.5371L2.31579 9.55163C2.48114 9.20989 2.75209 9.01373 3.05888 9.01373C3.36543 9.01373 3.63615 9.20979 3.80197 9.55163L4.28032 10.537L5.35026 10.6951C5.72133 10.7498 5.98824 10.952 6.08286 11.2497C6.17722 11.5473 6.0776 11.8706 5.8088 12.1367L5.03584 12.903L5.21814 13.9849C5.28337 14.3703 5.16414 14.612 5.05304 14.7467C4.91471 14.9141 4.71542 15.0062 4.49177 15.0062ZM21.1623 10.5371L22.2323 10.6951C22.6034 10.7498 22.8705 10.9521 22.9651 11.25C23.0597 11.5477 22.9598 11.8709 22.691 12.1368L21.9181 12.9031L22.1001 13.9849C22.1656 14.37 22.0469 14.6117 21.9355 14.7466C21.7974 14.9141 21.5982 15.0062 21.3745 15.0062C21.2204 15.0062 21.0603 14.9625 20.8988 14.876L19.9411 14.3642L18.9842 14.876C18.5878 15.0879 18.1806 15.0292 17.947 14.7468C17.8359 14.612 17.7166 14.3703 17.7819 13.9848L17.9642 12.903L17.191 12.1365C16.9224 11.8706 16.8228 11.5473 16.9171 11.2497C17.0118 10.952 17.2787 10.7498 17.6497 10.6951L18.7197 10.537L19.198 9.55151C19.3638 9.20979 19.6346 9.01373 19.9411 9.01373C20.2479 9.01373 20.5189 9.20989 20.6845 9.55188L21.1623 10.5371ZM14.2341 16.8239L15.5201 15.4849C15.8544 15.1374 15.9784 14.7311 15.8606 14.37C15.7442 14.0142 15.4152 13.7695 14.9581 13.6986L13.1979 13.4257L12.407 11.7135C12.1138 11.0798 11.6751 11.0112 11.5002 11.0112C11.3249 11.0112 10.8859 11.0798 10.594 11.7137L9.8026 13.4256L8.04213 13.6986C7.58479 13.7695 7.25554 14.0144 7.13942 14.3704C7.02139 14.7317 7.14563 15.1379 7.47943 15.4845L8.76611 16.824L8.46194 18.7196C8.3795 19.2296 8.5267 19.5345 8.66454 19.7005C8.9465 20.0396 9.43941 20.0969 9.93066 19.8213L11.5002 18.9405L13.0693 19.8213C13.2805 19.9399 13.4875 20.0001 13.6839 20C13.9434 20 14.1746 19.8937 14.3352 19.7005C14.4733 19.5345 14.6207 19.2297 14.5385 18.7204L14.2341 16.8239Z" fill="#DE3C3C"/>
</svg>
