<svg width="20" height="20" viewBox="0 0 20 20" fill="none" xmlns="http://www.w3.org/2000/svg">
<path fill-rule="evenodd" clip-rule="evenodd" d="M20 7.5645V1.04863C20 0.472256 19.5277 0 18.9513 0H9.04445C8.46404 0 7.99172 0.472256 7.99172 1.04863V7.5645C7.99172 8.14488 8.46404 8.61719 9.04445 8.61719H10.1412V11.0586C10.1412 11.2187 10.2373 11.3668 10.3854 11.4269C10.4374 11.4469 10.4894 11.4588 10.5415 11.4588C10.6456 11.4588 10.7456 11.4189 10.8217 11.3428L13.5476 8.61719H18.9513C19.5277 8.61719 20 8.14488 20 7.5645ZM13.6036 17.6946C13.6036 17.5025 13.5275 17.3184 13.3914 17.1823L10.7216 14.5127C10.4374 14.2286 9.97309 14.2286 9.68889 14.5127L8.80029 15.4012C8.56812 15.6334 7.3753 15.3412 6.01836 13.9804C4.65741 12.6236 4.36522 11.4308 4.59739 11.1987L5.48599 10.3102C5.77019 10.026 5.77019 9.5617 5.48599 9.27754L2.81615 6.60797C2.53195 6.32382 2.07165 6.32382 1.78744 6.60797L0.538583 7.85667C-0.870396 9.26553 0.574618 12.9158 3.82884 16.1697C6.23851 18.5791 8.86833 20 10.6415 20C11.262 20 11.7783 19.8239 12.1426 19.4597L13.3914 18.2109C13.5275 18.0748 13.6036 17.8907 13.6036 17.6946Z" fill="#414141"/>
</svg>
